<?xml version="1.0" standalone="no"?>
<!DOCTYPE svg PUBLIC "-//W3C//DTD SVG 20010904//EN"
 "http://www.w3.org/TR/2001/REC-SVG-20010904/DTD/svg10.dtd">
<svg version="1.0" xmlns="http://www.w3.org/2000/svg"
 width="985.000000pt" height="728.000000pt" viewBox="0 0 985.000000 728.000000"
 preserveAspectRatio="xMidYMid meet">

<g transform="translate(0.000000,728.000000) scale(0.100000,-0.100000)"
fill="#000000" stroke="none">
<path d="M1822 5465 c-997 -1000 -1812 -1821 -1812 -1825 0 -5 815 -826 1812
-1825 l1812 -1816 640 640 c353 353 646 641 651 641 5 0 298 -288 651 -641
l640 -640 1812 1816 c997 1000 1812 1821 1812 1825 0 4 -815 825 -1812 1824
l-1811 1817 -641 -640 c-353 -353 -646 -641 -651 -641 -5 0 -298 288 -651 641
l-641 640 -1811 -1816z m2560 748 l548 -548 550 550 550 550 1563 -1563 1562
-1562 -1562 -1562 -1563 -1563 -550 550 -550 550 -550 -550 -550 -550 -1563
1563 -1562 1562 1560 1560 c858 858 1562 1560 1565 1560 3 0 251 -246 552
-547z"/>
<path d="M2710 3720 l0 -1460 30 0 30 0 2 1460 3 1460 -32 0 -33 0 0 -1460z"/>
<path d="M7118 3710 l-3 -1460 33 0 32 0 0 1460 0 1460 -30 0 -30 0 -2 -1460z"/>
<path d="M4420 5100 c-576 -44 -958 -130 -1248 -281 -153 -80 -184 -128 -222
-344 -6 -38 -16 -97 -22 -130 -6 -33 -14 -69 -19 -80 -4 -11 -11 -39 -14 -62
-8 -52 16 -98 58 -113 17 -5 110 -10 208 -10 98 0 223 -5 278 -11 118 -14 154
-8 149 24 -4 28 -73 63 -154 78 -86 16 -136 33 -136 44 0 18 324 112 572 165
166 36 309 60 517 90 228 32 638 64 753 58 61 -2 75 -6 74 -19 -1 -9 -51 -81
-111 -160 -105 -138 -251 -331 -454 -599 -340 -449 -598 -859 -688 -1095 -66
-174 -76 -272 -32 -333 28 -39 120 -76 174 -69 56 8 131 61 199 143 33 41 64
71 69 68 5 -2 17 -24 27 -47 26 -58 67 -104 127 -142 54 -35 158 -75 193 -75
11 0 24 -4 27 -10 3 -5 15 -10 26 -10 17 0 19 4 12 23 -4 12 -7 60 -7 107 3
207 142 567 376 973 255 445 559 845 914 1204 l143 145 58 -7 c74 -8 181 -36
307 -80 126 -45 198 -47 274 -9 87 43 117 137 72 224 -43 85 -237 183 -445
225 -151 31 -231 36 -680 45 -311 6 -484 14 -560 25 -60 8 -139 18 -175 21
-36 4 -70 11 -76 15 -15 12 -437 18 -564 9z m2263 -420 c102 -39 156 -104 108
-130 -36 -19 -86 -10 -236 41 -83 28 -172 53 -200 56 -61 7 -91 21 -77 35 20
20 80 27 212 24 111 -3 146 -7 193 -26z m-2163 -2082 c0 -87 61 -221 125 -273
67 -56 40 -74 -52 -34 -84 36 -159 128 -176 216 -5 26 1 41 35 87 32 44 44 53
55 45 7 -6 13 -25 13 -41z"/>
</g>
</svg>
