<svg id="visual" viewBox="0 0 900 450" width="900" height="450" xmlns="http://www.w3.org/2000/svg" xmlns:xlink="http://www.w3.org/1999/xlink" version="1.1"><rect x="0" y="0" width="900" height="450" fill="#21262a"></rect><defs><linearGradient id="grad1_0" x1="50%" y1="0%" x2="100%" y2="100%"><stop offset="10%" stop-color="#f7770f" stop-opacity="1"></stop><stop offset="90%" stop-color="#f7770f" stop-opacity="1"></stop></linearGradient></defs><defs><linearGradient id="grad1_1" x1="50%" y1="0%" x2="100%" y2="100%"><stop offset="10%" stop-color="#f7770f" stop-opacity="1"></stop><stop offset="90%" stop-color="#8b437c" stop-opacity="1"></stop></linearGradient></defs><defs><linearGradient id="grad1_2" x1="50%" y1="0%" x2="100%" y2="100%"><stop offset="10%" stop-color="#21262a" stop-opacity="1"></stop><stop offset="90%" stop-color="#8b437c" stop-opacity="1"></stop></linearGradient></defs><defs><linearGradient id="grad2_0" x1="0%" y1="0%" x2="50%" y2="100%"><stop offset="10%" stop-color="#f7770f" stop-opacity="1"></stop><stop offset="90%" stop-color="#f7770f" stop-opacity="1"></stop></linearGradient></defs><defs><linearGradient id="grad2_1" x1="0%" y1="0%" x2="50%" y2="100%"><stop offset="10%" stop-color="#8b437c" stop-opacity="1"></stop><stop offset="90%" stop-color="#f7770f" stop-opacity="1"></stop></linearGradient></defs><defs><linearGradient id="grad2_2" x1="0%" y1="0%" x2="50%" y2="100%"><stop offset="10%" stop-color="#8b437c" stop-opacity="1"></stop><stop offset="90%" stop-color="#21262a" stop-opacity="1"></stop></linearGradient></defs><g transform="translate(900, 0)"><path d="M0 405C-40.7 399.8 -81.4 394.6 -125.2 385.2C-168.9 375.7 -215.6 362 -237.5 326.8C-259.3 291.7 -256.3 235.1 -272.6 198.1C-289 161 -324.7 143.5 -350 113.7C-375.3 84 -390.1 42 -405 0L0 0Z" fill="#3b3d61"></path><path d="M0 270C-27.1 266.5 -54.3 263.1 -83.4 256.8C-112.6 250.5 -143.7 241.3 -158.3 217.9C-172.9 194.5 -170.9 156.8 -181.8 132.1C-192.7 107.4 -216.5 95.7 -233.3 75.8C-250.2 56 -260.1 28 -270 0L0 0Z" fill="#db4461"></path><path d="M0 135C-13.6 133.3 -27.1 131.5 -41.7 128.4C-56.3 125.2 -71.9 120.7 -79.2 108.9C-86.4 97.2 -85.4 78.4 -90.9 66C-96.3 53.7 -108.2 47.8 -116.7 37.9C-125.1 28 -130 14 -135 0L0 0Z" fill="#f7770f"></path></g><g transform="translate(0, 450)"><path d="M0 -405C39.5 -395 79 -385.1 122.1 -375.7C165.1 -366.3 211.6 -357.4 238.1 -327.7C264.5 -297.9 270.7 -247.4 289.6 -210.4C308.5 -173.5 340.1 -150.2 361.4 -117.4C382.7 -84.6 393.9 -42.3 405 0L0 0Z" fill="#3b3d61"></path><path d="M0 -270C26.3 -263.4 52.7 -256.7 81.4 -250.4C110.1 -244.2 141.1 -238.3 158.7 -218.4C176.3 -198.6 180.5 -164.9 193.1 -140.3C205.7 -115.7 226.7 -100.1 240.9 -78.3C255.2 -56.4 262.6 -28.2 270 0L0 0Z" fill="#db4461"></path><path d="M0 -135C13.2 -131.7 26.3 -128.4 40.7 -125.2C55 -122.1 70.5 -119.1 79.4 -109.2C88.2 -99.3 90.2 -82.5 96.5 -70.1C102.8 -57.8 113.4 -50.1 120.5 -39.1C127.6 -28.2 131.3 -14.1 135 0L0 0Z" fill="#f7770f"></path></g></svg>